<svg width="65" height="68" viewBox="0 0 65 68" fill="none" xmlns="http://www.w3.org/2000/svg">
<path d="M65.0001 67.7748H46.9944C46.9864 60.6143 44.1382 53.7493 39.075 48.6861C34.0117 43.6228 27.1468 40.7748 19.9863 40.7667V22.761C31.9206 22.7744 43.3622 27.5212 51.801 35.9601C60.2398 44.3989 64.9866 55.8405 65.0001 67.7748V67.7748Z" fill="#fff"/>
<path d="M38.015 18.2132H19.9209V0.20752H64.9347V18.2132H38.015Z" fill="#fff"/>
<path d="M26.8844 67.8683C30.7294 67.8683 33.8464 64.7513 33.8464 60.9063C33.8464 57.0613 30.7294 53.9443 26.8844 53.9443C23.0394 53.9443 19.9224 57.0613 19.9224 60.9063C19.9224 64.7513 23.0394 67.8683 26.8844 67.8683Z" fill="#fff"/>
<path d="M3.8122 60.4009C3.59524 60.4573 3.38937 60.5499 3.20313 60.6746C3.02748 60.7938 2.87476 60.9438 2.75236 61.1172C2.62465 61.2999 2.5293 61.5032 2.4705 61.7182C2.40473 61.9603 2.37262 62.2104 2.37503 62.4613C2.36234 62.9591 2.49943 63.4493 2.76864 63.8682C3.0512 64.28 3.44971 64.5986 3.91358 64.7836C4.49311 65.0132 5.11319 65.123 5.73633 65.1063C6.36301 65.1222 6.98678 65.0162 7.57301 64.7941C8.04761 64.6235 8.45501 64.3052 8.73529 63.8859C9.01558 63.4667 9.15401 62.9685 9.13026 62.4648C9.14281 62.0319 9.05964 61.6016 8.88678 61.2045C8.74102 60.8791 8.49974 60.6058 8.19496 60.4207C7.87444 60.2363 7.50938 60.1437 7.13974 60.1528L7.2003 59.6497V62.3716H5.22734V57.5462H6.7088C7.60878 57.5205 8.49874 57.7407 9.28281 58.1833C9.98681 58.5967 10.5579 59.2029 10.9286 59.9303C11.3231 60.7234 11.5201 61.6001 11.5027 62.4857C11.5226 63.4693 11.2815 64.4406 10.8039 65.3008C10.3414 66.11 9.65344 66.7672 8.82394 67.1923C7.8756 67.6649 6.82582 67.8976 5.76661 67.8701C4.93308 67.8846 4.10394 67.7457 3.32071 67.4601C2.64331 67.2092 2.02601 66.8192 1.50847 66.3152C1.01747 65.8322 0.63374 65.2513 0.382235 64.6101C0.123713 63.9437 -0.00592602 63.2343 0.000211463 62.5195C-0.00507709 61.9044 0.0888631 61.2924 0.278519 60.7072C0.453024 60.17 0.71945 59.6672 1.06588 59.2211C1.3975 58.7974 1.80754 58.4415 2.27366 58.1728C2.74569 57.9013 3.2687 57.73 3.80993 57.6697L3.8122 60.4009Z" fill="#fff"/>
<path d="M11.3466 56.0254H0.15389V51.4015C0.13501 50.6524 0.289286 49.9091 0.604655 49.2293C0.885244 48.6409 1.3344 48.1491 1.89511 47.8165C2.49988 47.4731 3.18684 47.3012 3.88207 47.3192C4.57696 47.2965 5.2639 47.4727 5.86207 47.8271C6.40915 48.1732 6.83934 48.6761 7.09664 49.2701C7.39426 49.9691 7.53883 50.7236 7.52061 51.483V54.4064H5.38919V51.9862C5.39928 51.6375 5.34479 51.29 5.22847 50.9612C5.13623 50.7053 4.96386 50.4859 4.73697 50.3358C4.48012 50.1841 4.18482 50.1101 3.88676 50.1227C3.5855 50.1112 3.28711 50.185 3.02604 50.3358C2.79216 50.4853 2.61222 50.7057 2.51243 50.9647C2.38906 51.2907 2.33049 51.6377 2.34004 51.9862V53.3198H11.3524L11.3466 56.0254ZM6.2313 49.7243L11.3466 46.9373V49.8886L6.2313 52.6209V49.7243Z" fill="#fff"/>
<path d="M11.3465 43.4933V46.4051L0.153809 42.6279V39.0267L11.3465 35.2507V38.1625L2.97356 40.7912V40.8785L11.3465 43.4933ZM6.94166 43.8811V37.8038H8.99616V43.8823L6.94166 43.8811Z" fill="#fff"/>
<path d="M0.153809 24.5894H11.3465V26.885L4.88596 31.3388V31.4098H11.3465V34.1154H0.153809V31.786L6.60272 27.3811V27.2879H0.153809V24.5894Z" fill="#fff"/>
<path d="M0.153809 20.2666H11.3465V22.9722H0.153809V20.2666Z" fill="#fff"/>
<path d="M2.35041 19.016H0.153809V9.55518H2.35041V12.9491H11.3465V15.6162H2.35041V19.016Z" fill="#fff"/>
<path d="M11.3465 8.30393H0.153809V0.500488H2.35041V5.60417H4.64604V0.898791H6.84847V5.60417H9.14879V0.505145H11.3465V8.30393Z" fill="#fff"/>
</svg>
